<?xml version="1.0" standalone="no"?>
<!DOCTYPE svg PUBLIC "-//W3C//DTD SVG 20010904//EN"
 "http://www.w3.org/TR/2001/REC-SVG-20010904/DTD/svg10.dtd">
<svg version="1.0" xmlns="http://www.w3.org/2000/svg"
 width="281.000000pt" height="282.000000pt" viewBox="0 0 281.000000 282.000000"
 preserveAspectRatio="xMidYMid meet">

<g transform="translate(0.000000,282.000000) scale(0.100000,-0.100000)"
fill="#000000" stroke="none">
<path d="M1312 1910 c-171 -61 -289 -191 -322 -355 -32 -156 38 -379 189 -604
122 -182 258 -301 389 -341 212 -66 457 48 555 258 27 57 32 81 35 163 6 132
-19 228 -102 394 -134 268 -300 432 -495 492 -65 19 -186 16 -249 -7z"/>
<path d="M42 842 l3 -751 23 -23 23 -23 617 -2 c605 -2 616 -2 562 16 -156 51
-315 172 -442 337 -25 33 -209 312 -408 619 -199 308 -366 564 -371 570 -6 5
-8 -292 -7 -743z"/>
<path d="M2748 855 c-29 -130 -113 -263 -257 -405 -202 -200 -446 -331 -729
-390 l-87 -19 503 0 c549 -1 547 -1 571 56 8 20 11 138 9 408 -2 209 -6 366
-10 350z"/>
</g>
</svg>
